# xmcd CD database file
#
# Track frame offsets:
#	150
#	26975
#	61234
#	93963
#	117519
#	133261
#	152586
#	184652
#	204773
#	233634
#	258680
#	297561
#	330937
#
# Disc length: 4734 seconds
#
# Revision: 0
# Processed by: cddbd v1.5.2PL0 Copyright (c) Steve Scherf et al.
# Submitted via: CDex 1.51
#
DISCID=b8127c0d
DTITLE=Various Artist - Harlem Nocturne CD2
DYEAR=2006
DGENRE=Jazz
TTITLE0=Rusty Bryant: Cootie Boogaloo
TTITLE1=Freddy McCoy: Listen Here
TTITLE2=Charkes Kynard: Reelin' With The Feelin'
TTITLE3=Billy Butler: The Twang Thang
TTITLE4=Freddy McCoy: Pleas'n Rice
TTITLE5=Harold Mabern: Too Busy Thinking About My Baby
TTITLE6=Boogaloo Joe Jones: Things Ain't What They Used To Be
TTITLE7=Funk Inc: Goodbye, So Long
TTITLE8=Gary Bartz: Singerella - A Ghetto Fairy Tale
TTITLE9=Boogaloo Joe Jones: Ain' No Sunshine
TTITLE10=Gary Bartz: I'ver Known Rivers
TTITLE11=David Fathead Newman: Distant Lover
TTITLE12=Nat Adderly: In A Silent Way
EXTD=YEAR: 2006
EXTT0=
EXTT1=
EXTT2=
EXTT3=
EXTT4=
EXTT5=
EXTT6=
EXTT7=
EXTT8=
EXTT9=
EXTT10=
EXTT11=
EXTT12=
PLAYORDER=
